%FSLAX34Y34*%
%MOMM*%
%LNCOPPER_TOP*%
G71*
G01*
%ADD10R, 3.800X2.800*%
%ADD11R, 3.800X5.300*%
%ADD12C, 0.238*%
%ADD13C, 1.200*%
%ADD14R, 2.200X2.100*%
%ADD15C, 1.300*%
%ADD16C, 2.800*%
%ADD17R, 1.500X3.000*%
%ADD18R, 2.100X2.400*%
%ADD19C, 1.000*%
%ADD20C, 0.667*%
%ADD21C, 0.497*%
%ADD22C, 0.502*%
%ADD23C, 0.433*%
%ADD24R, 3.000X2.000*%
%ADD25R, 3.000X4.500*%
%ADD26C, 0.400*%
%ADD27R, 1.400X1.300*%
%ADD28C, 0.500*%
%ADD29C, 2.000*%
%ADD30R, 0.700X2.200*%
%ADD31R, 1.300X1.600*%
%LPD*%
G36*
X0Y0D02*
X550000Y0D01*
X550000Y-240000D01*
X0Y-240000D01*
X0Y0D01*
G37*
%LPC*%
X359570Y-115145D02*
G54D10*
D03*
X359570Y-77045D02*
G54D11*
D03*
X313533Y-115145D02*
G54D10*
D03*
X313533Y-77045D02*
G54D11*
D03*
G54D12*
X363772Y-42979D02*
X355438Y-42979D01*
X353772Y-41979D01*
X352938Y-39979D01*
X352938Y-37979D01*
X353772Y-35979D01*
X355438Y-34979D01*
X363772Y-34979D01*
X365438Y-35979D01*
X366272Y-37979D01*
X366272Y-39979D01*
X365438Y-41979D01*
X363772Y-42979D01*
G54D12*
X315234Y-36567D02*
X320234Y-41567D01*
X306901Y-41567D01*
X267495Y-115145D02*
G54D10*
D03*
X267495Y-77045D02*
G54D11*
D03*
X221458Y-115145D02*
G54D10*
D03*
X221458Y-77045D02*
G54D11*
D03*
G54D12*
X262451Y-44567D02*
X262451Y-36567D01*
X263284Y-36567D01*
X264951Y-37567D01*
X269951Y-43567D01*
X271617Y-44567D01*
X273284Y-44567D01*
X274951Y-43567D01*
X275784Y-41567D01*
X275784Y-39567D01*
X274951Y-37567D01*
X273284Y-36567D01*
G54D12*
X225659Y-34979D02*
X227326Y-35979D01*
X228159Y-37979D01*
X228159Y-39979D01*
X227326Y-41979D01*
X225659Y-42979D01*
X223993Y-42979D01*
X222326Y-41979D01*
X221492Y-39979D01*
X220659Y-41979D01*
X218992Y-42979D01*
X217326Y-42979D01*
X215659Y-41979D01*
X214826Y-39979D01*
X214826Y-37979D01*
X215659Y-35979D01*
X217326Y-34979D01*
X175420Y-115145D02*
G54D10*
D03*
X175420Y-77045D02*
G54D11*
D03*
G54D12*
X168788Y-40979D02*
X182122Y-40979D01*
X173788Y-34979D01*
X172122Y-34979D01*
X172122Y-42979D01*
X129383Y-115145D02*
G54D10*
D03*
X129383Y-77045D02*
G54D11*
D03*
G54D12*
X136084Y-42979D02*
X136084Y-34979D01*
X130251Y-34979D01*
X130251Y-35979D01*
X131084Y-37979D01*
X131084Y-39979D01*
X130251Y-41979D01*
X128584Y-42979D01*
X125251Y-42979D01*
X123584Y-41979D01*
X122751Y-39979D01*
X122751Y-37979D01*
X123584Y-35979D01*
X125251Y-34979D01*
X83345Y-115145D02*
G54D10*
D03*
X83345Y-77045D02*
G54D11*
D03*
G54D12*
X89134Y-41392D02*
X90801Y-40392D01*
X91634Y-38392D01*
X91634Y-36392D01*
X90801Y-34392D01*
X89134Y-33392D01*
X84968Y-33392D01*
X84134Y-33392D01*
X85801Y-36392D01*
X85801Y-38392D01*
X84968Y-40392D01*
X83301Y-41392D01*
X80801Y-41392D01*
X79134Y-40392D01*
X78301Y-38392D01*
X78301Y-36392D01*
X79134Y-34392D01*
X80801Y-33392D01*
X84968Y-33392D01*
X37308Y-115145D02*
G54D10*
D03*
X37308Y-77045D02*
G54D11*
D03*
G54D12*
X44009Y-33392D02*
X44009Y-41392D01*
X42343Y-40392D01*
X39842Y-38392D01*
X36509Y-36392D01*
X34009Y-35392D01*
X30676Y-35392D01*
G54D13*
X358850Y-115888D02*
X358850Y-152450D01*
X313533Y-170708D02*
G54D14*
D03*
X313533Y-151708D02*
G54D14*
D03*
G54D13*
X313533Y-115145D02*
X313533Y-151708D01*
X267495Y-170708D02*
G54D14*
D03*
X267495Y-151708D02*
G54D14*
D03*
G54D13*
X267495Y-115145D02*
X267495Y-151708D01*
X221458Y-170708D02*
G54D14*
D03*
X221458Y-151708D02*
G54D14*
D03*
G54D13*
X221458Y-115145D02*
X221458Y-151708D01*
X175420Y-170708D02*
G54D14*
D03*
X175420Y-151708D02*
G54D14*
D03*
G54D13*
X175420Y-115145D02*
X175420Y-151708D01*
X129383Y-170708D02*
G54D14*
D03*
X129383Y-151708D02*
G54D14*
D03*
G54D13*
X129383Y-115145D02*
X129383Y-151708D01*
X83345Y-170708D02*
G54D14*
D03*
X83345Y-151708D02*
G54D14*
D03*
G54D13*
X83345Y-115145D02*
X83345Y-151708D01*
X37308Y-170708D02*
G54D14*
D03*
X37308Y-151708D02*
G54D14*
D03*
G54D13*
X37308Y-115145D02*
X37308Y-151708D01*
G54D13*
X358775Y-171450D02*
X398462Y-171450D01*
X398462Y-114300D01*
X438150Y-114300D01*
X438237Y-75632D01*
G54D13*
X314325Y-171450D02*
X328612Y-185738D01*
X425450Y-185738D01*
X425450Y-149225D01*
G54D13*
X266700Y-171450D02*
X288925Y-192088D01*
X438150Y-192088D01*
X438150Y-150812D01*
G54D13*
X463637Y-151219D02*
X463550Y-204788D01*
X360437Y-204788D01*
G54D13*
X450850Y-150812D02*
X450850Y-198438D01*
X407988Y-198438D01*
G54D13*
X222250Y-171450D02*
X249238Y-198438D01*
X407988Y-198438D01*
G54D13*
X363538Y-204788D02*
X209425Y-204788D01*
X175345Y-170708D01*
G54D13*
X476337Y-151219D02*
X476250Y-211138D01*
X168225Y-211138D01*
X127795Y-170708D01*
G54D13*
X489037Y-151219D02*
X488950Y-217488D01*
X128538Y-217488D01*
X81758Y-170708D01*
G54D13*
X501737Y-151219D02*
X501650Y-223838D01*
X88850Y-223838D01*
X35720Y-170708D01*
G54D15*
X425537Y-33744D02*
X425537Y-14694D01*
X525549Y-14694D01*
X525549Y-41682D01*
X501737Y-63907D01*
X501737Y-75019D01*
G36*
X386137Y-19744D02*
X414137Y-19744D01*
X414137Y-47744D01*
X386137Y-47744D01*
X386137Y-19744D01*
G37*
X425537Y-33744D02*
G54D16*
D03*
X450937Y-33744D02*
G54D16*
D03*
X476337Y-33744D02*
G54D16*
D03*
X501737Y-33744D02*
G54D16*
D03*
X425537Y-149632D02*
G54D17*
D03*
X438237Y-149632D02*
G54D17*
D03*
X450937Y-149632D02*
G54D17*
D03*
X463637Y-149632D02*
G54D17*
D03*
X476337Y-149632D02*
G54D17*
D03*
G36*
X481537Y-134632D02*
X496537Y-134632D01*
X496537Y-164632D01*
X481537Y-164632D01*
X481537Y-134632D01*
G37*
X501737Y-149632D02*
G54D17*
D03*
X514436Y-149632D02*
G54D17*
D03*
G36*
X506937Y-60632D02*
X521937Y-60632D01*
X521937Y-90632D01*
X506937Y-90632D01*
X506937Y-60632D01*
G37*
X501737Y-75632D02*
G54D17*
D03*
X489037Y-75632D02*
G54D17*
D03*
X476337Y-75632D02*
G54D17*
D03*
G36*
X456137Y-60632D02*
X471137Y-60632D01*
X471137Y-90632D01*
X456137Y-90632D01*
X456137Y-60632D01*
G37*
X450937Y-75632D02*
G54D17*
D03*
X438237Y-75632D02*
G54D17*
D03*
X425537Y-75632D02*
G54D17*
D03*
G54D15*
X489037Y-75632D02*
X489037Y-62319D01*
X501812Y-33744D01*
G54D15*
X476337Y-75632D02*
X476412Y-33744D01*
G54D15*
X450937Y-75632D02*
X451012Y-33744D01*
G54D15*
X425537Y-33744D02*
X425537Y-75632D01*
X417574Y-75045D02*
G54D18*
D03*
X398574Y-75044D02*
G54D18*
D03*
G36*
X411687Y-134632D02*
X426687Y-134632D01*
X426687Y-164632D01*
X411687Y-164632D01*
X411687Y-134632D01*
G37*
X358850Y-171450D02*
G54D14*
D03*
X358850Y-152450D02*
G54D14*
D03*
%LPD*%
G54D19*
G36*
X359570Y-82045D02*
X340070Y-82045D01*
X340070Y-72045D01*
X359570Y-72045D01*
X359570Y-82045D01*
G37*
G36*
X354570Y-77045D02*
X354570Y-50045D01*
X364570Y-50045D01*
X364570Y-77045D01*
X354570Y-77045D01*
G37*
G36*
X359570Y-72045D02*
X379070Y-72045D01*
X379070Y-82045D01*
X359570Y-82045D01*
X359570Y-72045D01*
G37*
G54D19*
G36*
X313533Y-82045D02*
X294033Y-82045D01*
X294033Y-72045D01*
X313533Y-72045D01*
X313533Y-82045D01*
G37*
G36*
X308533Y-77045D02*
X308533Y-50045D01*
X318533Y-50045D01*
X318533Y-77045D01*
X308533Y-77045D01*
G37*
G36*
X313533Y-72045D02*
X333033Y-72045D01*
X333033Y-82045D01*
X313533Y-82045D01*
X313533Y-72045D01*
G37*
G54D19*
G36*
X267495Y-82045D02*
X247995Y-82045D01*
X247995Y-72045D01*
X267495Y-72045D01*
X267495Y-82045D01*
G37*
G36*
X262495Y-77045D02*
X262495Y-50045D01*
X272495Y-50045D01*
X272495Y-77045D01*
X262495Y-77045D01*
G37*
G36*
X267495Y-72045D02*
X286995Y-72045D01*
X286995Y-82045D01*
X267495Y-82045D01*
X267495Y-72045D01*
G37*
G54D19*
G36*
X221458Y-82045D02*
X201958Y-82045D01*
X201958Y-72045D01*
X221458Y-72045D01*
X221458Y-82045D01*
G37*
G36*
X216458Y-77045D02*
X216458Y-50045D01*
X226458Y-50045D01*
X226458Y-77045D01*
X216458Y-77045D01*
G37*
G36*
X221458Y-72045D02*
X240958Y-72045D01*
X240958Y-82045D01*
X221458Y-82045D01*
X221458Y-72045D01*
G37*
G54D19*
G36*
X175420Y-82045D02*
X155920Y-82045D01*
X155920Y-72045D01*
X175420Y-72045D01*
X175420Y-82045D01*
G37*
G36*
X170420Y-77045D02*
X170420Y-50045D01*
X180420Y-50045D01*
X180420Y-77045D01*
X170420Y-77045D01*
G37*
G36*
X175420Y-72045D02*
X194920Y-72045D01*
X194920Y-82045D01*
X175420Y-82045D01*
X175420Y-72045D01*
G37*
G54D19*
G36*
X129383Y-82045D02*
X109883Y-82045D01*
X109883Y-72045D01*
X129383Y-72045D01*
X129383Y-82045D01*
G37*
G36*
X124383Y-77045D02*
X124383Y-50045D01*
X134383Y-50045D01*
X134383Y-77045D01*
X124383Y-77045D01*
G37*
G36*
X129383Y-72045D02*
X148883Y-72045D01*
X148883Y-82045D01*
X129383Y-82045D01*
X129383Y-72045D01*
G37*
G54D19*
G36*
X83345Y-82045D02*
X63845Y-82045D01*
X63845Y-72045D01*
X83345Y-72045D01*
X83345Y-82045D01*
G37*
G36*
X78345Y-77045D02*
X78345Y-50045D01*
X88345Y-50045D01*
X88345Y-77045D01*
X78345Y-77045D01*
G37*
G36*
X83345Y-72045D02*
X102845Y-72045D01*
X102845Y-82045D01*
X83345Y-82045D01*
X83345Y-72045D01*
G37*
G54D19*
G36*
X37308Y-82045D02*
X17808Y-82045D01*
X17808Y-72045D01*
X37308Y-72045D01*
X37308Y-82045D01*
G37*
G36*
X32308Y-77045D02*
X32308Y-50045D01*
X42308Y-50045D01*
X42308Y-77045D01*
X32308Y-77045D01*
G37*
G36*
X37308Y-72045D02*
X56808Y-72045D01*
X56808Y-82045D01*
X37308Y-82045D01*
X37308Y-72045D01*
G37*
G54D20*
G36*
X396803Y-33744D02*
X396803Y-19244D01*
X403470Y-19244D01*
X403470Y-33744D01*
X396803Y-33744D01*
G37*
G36*
X403470Y-33744D02*
X403470Y-48244D01*
X396803Y-48244D01*
X396803Y-33744D01*
X403470Y-33744D01*
G37*
G36*
X400137Y-37078D02*
X385637Y-37078D01*
X385637Y-30411D01*
X400137Y-30411D01*
X400137Y-37078D01*
G37*
G54D21*
G36*
X511951Y-149632D02*
X511951Y-134132D01*
X516921Y-134132D01*
X516921Y-149632D01*
X511951Y-149632D01*
G37*
G36*
X514436Y-147147D02*
X522436Y-147147D01*
X522436Y-152117D01*
X514436Y-152117D01*
X514436Y-147147D01*
G37*
G36*
X516921Y-149632D02*
X516921Y-165132D01*
X511951Y-165132D01*
X511951Y-149632D01*
X516921Y-149632D01*
G37*
G54D22*
G36*
X461129Y-75632D02*
X461129Y-60132D01*
X466146Y-60132D01*
X466146Y-75632D01*
X461129Y-75632D01*
G37*
G36*
X466146Y-75632D02*
X466146Y-91132D01*
X461129Y-91132D01*
X461129Y-75632D01*
X466146Y-75632D01*
G37*
G54D23*
G36*
X400741Y-75044D02*
X400741Y-87544D01*
X396408Y-87544D01*
X396408Y-75044D01*
X400741Y-75044D01*
G37*
G36*
X398574Y-77211D02*
X387574Y-77211D01*
X387574Y-72878D01*
X398574Y-72878D01*
X398574Y-77211D01*
G37*
G36*
X396408Y-75044D02*
X396408Y-62544D01*
X400741Y-62544D01*
X400741Y-75044D01*
X396408Y-75044D01*
G37*
X359570Y-115145D02*
G54D24*
D03*
X359570Y-77045D02*
G54D25*
D03*
X313533Y-115145D02*
G54D24*
D03*
X313533Y-77045D02*
G54D25*
D03*
X267495Y-115145D02*
G54D24*
D03*
X267495Y-77045D02*
G54D25*
D03*
X221458Y-115145D02*
G54D24*
D03*
X221458Y-77045D02*
G54D25*
D03*
X175420Y-115145D02*
G54D24*
D03*
X175420Y-77045D02*
G54D25*
D03*
X129383Y-115145D02*
G54D24*
D03*
X129383Y-77045D02*
G54D25*
D03*
X83345Y-115145D02*
G54D24*
D03*
X83345Y-77045D02*
G54D25*
D03*
X37308Y-115145D02*
G54D24*
D03*
X37308Y-77045D02*
G54D25*
D03*
G54D26*
X358850Y-115888D02*
X358850Y-152450D01*
X313533Y-170708D02*
G54D27*
D03*
X313533Y-151708D02*
G54D27*
D03*
G54D26*
X313533Y-115145D02*
X313533Y-151708D01*
X267495Y-170708D02*
G54D27*
D03*
X267495Y-151708D02*
G54D27*
D03*
G54D26*
X267495Y-115145D02*
X267495Y-151708D01*
X221458Y-170708D02*
G54D27*
D03*
X221458Y-151708D02*
G54D27*
D03*
G54D26*
X221458Y-115145D02*
X221458Y-151708D01*
X175420Y-170708D02*
G54D27*
D03*
X175420Y-151708D02*
G54D27*
D03*
G54D26*
X175420Y-115145D02*
X175420Y-151708D01*
X129383Y-170708D02*
G54D27*
D03*
X129383Y-151708D02*
G54D27*
D03*
G54D26*
X129383Y-115145D02*
X129383Y-151708D01*
X83345Y-170708D02*
G54D27*
D03*
X83345Y-151708D02*
G54D27*
D03*
G54D26*
X83345Y-115145D02*
X83345Y-151708D01*
X37308Y-170708D02*
G54D27*
D03*
X37308Y-151708D02*
G54D27*
D03*
G54D26*
X37308Y-115145D02*
X37308Y-151708D01*
G54D26*
X358775Y-171450D02*
X398462Y-171450D01*
X398462Y-114300D01*
X438150Y-114300D01*
X438237Y-75632D01*
G54D26*
X314325Y-171450D02*
X328612Y-185738D01*
X425450Y-185738D01*
X425450Y-149225D01*
G54D26*
X266700Y-171450D02*
X288925Y-192088D01*
X438150Y-192088D01*
X438150Y-150812D01*
G54D26*
X463637Y-151219D02*
X463550Y-204788D01*
X360437Y-204788D01*
G54D26*
X450850Y-150812D02*
X450850Y-198438D01*
X407988Y-198438D01*
G54D26*
X222250Y-171450D02*
X249238Y-198438D01*
X407988Y-198438D01*
G54D26*
X363538Y-204788D02*
X209425Y-204788D01*
X175345Y-170708D01*
G54D26*
X476337Y-151219D02*
X476250Y-211138D01*
X168225Y-211138D01*
X127795Y-170708D01*
G54D26*
X489037Y-151219D02*
X488950Y-217488D01*
X128538Y-217488D01*
X81758Y-170708D01*
G54D26*
X501737Y-151219D02*
X501650Y-223838D01*
X88850Y-223838D01*
X35720Y-170708D01*
G54D28*
X425537Y-33744D02*
X425537Y-14694D01*
X525549Y-14694D01*
X525549Y-41682D01*
X501737Y-63907D01*
X501737Y-75019D01*
G36*
X390137Y-23744D02*
X410137Y-23744D01*
X410137Y-43744D01*
X390137Y-43744D01*
X390137Y-23744D01*
G37*
X425537Y-33744D02*
G54D29*
D03*
X450937Y-33744D02*
G54D29*
D03*
X476337Y-33744D02*
G54D29*
D03*
X501737Y-33744D02*
G54D29*
D03*
X425537Y-149632D02*
G54D30*
D03*
X438237Y-149632D02*
G54D30*
D03*
X450937Y-149632D02*
G54D30*
D03*
X463637Y-149632D02*
G54D30*
D03*
X476337Y-149632D02*
G54D30*
D03*
G36*
X485537Y-138632D02*
X492537Y-138632D01*
X492537Y-160632D01*
X485537Y-160632D01*
X485537Y-138632D01*
G37*
X501737Y-149632D02*
G54D30*
D03*
X514436Y-149632D02*
G54D30*
D03*
X514437Y-75632D02*
G54D30*
D03*
X501737Y-75632D02*
G54D30*
D03*
X489037Y-75632D02*
G54D30*
D03*
X476337Y-75632D02*
G54D30*
D03*
X463637Y-75632D02*
G54D30*
D03*
X450937Y-75632D02*
G54D30*
D03*
X438237Y-75632D02*
G54D30*
D03*
X425537Y-75632D02*
G54D30*
D03*
G54D28*
X489037Y-75632D02*
X489037Y-62319D01*
X501812Y-33744D01*
G54D28*
X476337Y-75632D02*
X476412Y-33744D01*
G54D28*
X450937Y-75632D02*
X451012Y-33744D01*
G54D28*
X425537Y-33744D02*
X425537Y-75632D01*
X417574Y-75045D02*
G54D31*
D03*
X398574Y-75044D02*
G54D31*
D03*
G36*
X415687Y-138632D02*
X422687Y-138632D01*
X422687Y-160632D01*
X415687Y-160632D01*
X415687Y-138632D01*
G37*
X358850Y-171450D02*
G54D27*
D03*
X358850Y-152450D02*
G54D27*
D03*
M02*
