%FSLAX34Y34*%
%MOMM*%
%LNCOPPER_TOP*%
G71*
G01*
%ADD10C, 0.002*%
%ADD11R, 2.000X1.700*%
%ADD12C, 2.200*%
%ADD13C, 2.000*%
%ADD14C, 0.700*%
%ADD15R, 1.620X1.420*%
%ADD16R, 1.700X2.000*%
%ADD17R, 2.000X2.400*%
%ADD18C, 0.156*%
%ADD19C, 0.500*%
%ADD20C, 1.900*%
%ADD21R, 2.800X1.200*%
%ADD22C, 0.433*%
%ADD23C, 0.924*%
%ADD24C, 0.340*%
%ADD25C, 0.500*%
%ADD26C, 0.267*%
%ADD27R, 1.600X1.300*%
%ADD28C, 1.800*%
%ADD29C, 1.600*%
%ADD30C, 0.300*%
%ADD31R, 1.220X1.020*%
%ADD32R, 1.300X1.600*%
%ADD33R, 1.600X2.000*%
%ADD34C, 1.500*%
%ADD35R, 2.400X0.800*%
%ADD36C, 0.800*%
%LPD*%
G54D10*
X-34Y61D02*
X390966Y61D01*
X390966Y-231939D01*
X-34Y-231939D01*
X-34Y61D01*
G36*
X-34Y61D02*
X390966Y61D01*
X390966Y-231939D01*
X-34Y-231939D01*
X-34Y61D01*
G37*
%LPC*%
X278210Y-64691D02*
G54D11*
D03*
X278210Y-45691D02*
G54D11*
D03*
G36*
X334419Y-97286D02*
X334419Y-119286D01*
X312419Y-119286D01*
X312419Y-97286D01*
X334419Y-97286D01*
G37*
X348819Y-108286D02*
G54D12*
D03*
X323419Y-133686D02*
G54D12*
D03*
X348819Y-133686D02*
G54D12*
D03*
X323419Y-159086D02*
G54D12*
D03*
X348820Y-159086D02*
G54D12*
D03*
G36*
X98056Y-17386D02*
X98056Y-37386D01*
X78056Y-37386D01*
X78056Y-17386D01*
X98056Y-17386D01*
G37*
X88056Y-52786D02*
G54D13*
D03*
X88056Y-78186D02*
G54D13*
D03*
X88056Y-103586D02*
G54D13*
D03*
X88056Y-128986D02*
G54D13*
D03*
X88056Y-154386D02*
G54D13*
D03*
X88056Y-179786D02*
G54D13*
D03*
X88056Y-205186D02*
G54D13*
D03*
G54D14*
X277812Y-84138D02*
X277812Y-65088D01*
G54D14*
X323419Y-159086D02*
X286294Y-159086D01*
G54D14*
X286294Y-146386D02*
X310719Y-146386D01*
X323419Y-133686D01*
G54D14*
X286294Y-133686D02*
X298019Y-133686D01*
X323419Y-108286D01*
G54D14*
X349216Y-133686D02*
X349216Y-130511D01*
X336516Y-117811D01*
X336516Y-97173D01*
X334135Y-94792D01*
X309925Y-94792D01*
G54D14*
X278169Y-108285D02*
X296432Y-108286D01*
X309925Y-94792D01*
G54D14*
X278357Y-95586D02*
X261507Y-95586D01*
X253172Y-87252D01*
X253172Y-50342D01*
X240472Y-37642D01*
X111075Y-205185D02*
G54D15*
D03*
X133975Y-194985D02*
G54D15*
D03*
X133975Y-215385D02*
G54D15*
D03*
X111075Y-154385D02*
G54D15*
D03*
X133975Y-144185D02*
G54D15*
D03*
X133975Y-164585D02*
G54D15*
D03*
X111075Y-103585D02*
G54D15*
D03*
X133975Y-93385D02*
G54D15*
D03*
X133975Y-113785D02*
G54D15*
D03*
X111075Y-52785D02*
G54D15*
D03*
X133975Y-42585D02*
G54D15*
D03*
X133975Y-62985D02*
G54D15*
D03*
X159890Y-78185D02*
G54D15*
D03*
X182791Y-67985D02*
G54D15*
D03*
X182790Y-88385D02*
G54D15*
D03*
X159890Y-27385D02*
G54D15*
D03*
X182791Y-17185D02*
G54D15*
D03*
X182790Y-37585D02*
G54D15*
D03*
X159890Y-179785D02*
G54D15*
D03*
X182791Y-169585D02*
G54D15*
D03*
X182790Y-189985D02*
G54D15*
D03*
X159890Y-128985D02*
G54D15*
D03*
X182791Y-118785D02*
G54D15*
D03*
X182790Y-139185D02*
G54D15*
D03*
G54D14*
X88056Y-205185D02*
X111075Y-205185D01*
G54D14*
X88056Y-179785D02*
X159890Y-179785D01*
G54D14*
X88056Y-154385D02*
X111075Y-154385D01*
G54D14*
X88056Y-128985D02*
X159890Y-128985D01*
G54D14*
X88056Y-103585D02*
X111075Y-103585D01*
G54D14*
X88056Y-78185D02*
X159890Y-78185D01*
G54D14*
X88056Y-52785D02*
X111075Y-52785D01*
G54D14*
X88056Y-27385D02*
X159890Y-27385D01*
G54D14*
X133975Y-62985D02*
X139326Y-59413D01*
X151175Y-53914D01*
X202373Y-53914D01*
X217057Y-71773D01*
G54D14*
X228169Y-95586D02*
X189992Y-95586D01*
X182790Y-88385D01*
G54D14*
X133975Y-113785D02*
X139723Y-109419D01*
X151175Y-105905D01*
X199991Y-105905D01*
X202769Y-108683D01*
X227772Y-108683D01*
X228169Y-108286D01*
G54D14*
X133975Y-164585D02*
X139326Y-160219D01*
X151175Y-154323D01*
X190069Y-154323D01*
X210310Y-134083D01*
X227772Y-134083D01*
X228169Y-133686D01*
G54D14*
X228169Y-146386D02*
X205944Y-146386D01*
X198404Y-153926D01*
X198404Y-174372D01*
X182790Y-189985D01*
G54D14*
X133975Y-215385D02*
X184173Y-215385D01*
X203960Y-195598D01*
X203960Y-166230D01*
X211104Y-159086D01*
X228169Y-159086D01*
G54D14*
X182790Y-139185D02*
X196873Y-139185D01*
X215469Y-120589D01*
X227772Y-120589D01*
X228169Y-120986D01*
X64244Y-27385D02*
G54D16*
D03*
X45244Y-27384D02*
G54D16*
D03*
X64244Y-52785D02*
G54D16*
D03*
X45244Y-52784D02*
G54D16*
D03*
X64244Y-78185D02*
G54D16*
D03*
X45244Y-78184D02*
G54D16*
D03*
X64244Y-103585D02*
G54D16*
D03*
X45244Y-103584D02*
G54D16*
D03*
X64244Y-128985D02*
G54D16*
D03*
X45244Y-128984D02*
G54D16*
D03*
X64244Y-154385D02*
G54D16*
D03*
X45244Y-154384D02*
G54D16*
D03*
X64244Y-179785D02*
G54D16*
D03*
X45244Y-179784D02*
G54D16*
D03*
X64244Y-205185D02*
G54D16*
D03*
X45244Y-205184D02*
G54D16*
D03*
G54D14*
X64244Y-52785D02*
X88056Y-52785D01*
G54D14*
X64244Y-78185D02*
X88056Y-78185D01*
G54D14*
X88056Y-103585D02*
X64244Y-103585D01*
G54D14*
X88056Y-128985D02*
X64244Y-128985D01*
G54D14*
X88056Y-154385D02*
X64244Y-154385D01*
G54D14*
X88056Y-179785D02*
X64244Y-179785D01*
G54D14*
X88056Y-205185D02*
X64244Y-205185D01*
G54D14*
X64244Y-27385D02*
X88056Y-27385D01*
X321072Y-73422D02*
G54D17*
D03*
X349072Y-73422D02*
G54D17*
D03*
G54D14*
X348854Y-108347D02*
X348854Y-73422D01*
G54D14*
X278210Y-64691D02*
X320278Y-64691D01*
X321072Y-73422D01*
G54D18*
X91773Y-12307D02*
X83995Y-12307D01*
X82440Y-11374D01*
X81662Y-9507D01*
X81662Y-7640D01*
X82440Y-5774D01*
X83995Y-4840D01*
X91773Y-4840D01*
X93329Y-5774D01*
X94106Y-7640D01*
X94106Y-9507D01*
X93329Y-11374D01*
X91773Y-12307D01*
G54D18*
X88280Y-223423D02*
X88280Y-221556D01*
X89058Y-219689D01*
X90613Y-218756D01*
X92169Y-218756D01*
X93724Y-219689D01*
X94502Y-221556D01*
X94502Y-223423D01*
X93724Y-225289D01*
X92169Y-226223D01*
X90613Y-226223D01*
X89058Y-225289D01*
X88280Y-223423D01*
X87502Y-225289D01*
X85947Y-226223D01*
X84391Y-226223D01*
X82836Y-225289D01*
X82058Y-223423D01*
X82058Y-221556D01*
X82836Y-219689D01*
X84391Y-218756D01*
X85947Y-218756D01*
X87502Y-219689D01*
X88280Y-221556D01*
X159228Y-14347D02*
G54D19*
D03*
X110412Y-39747D02*
G54D19*
D03*
X159228Y-65147D02*
G54D19*
D03*
X110412Y-90547D02*
G54D19*
D03*
X159228Y-115947D02*
G54D19*
D03*
X159228Y-166747D02*
G54D19*
D03*
X110412Y-141347D02*
G54D19*
D03*
X110412Y-192147D02*
G54D19*
D03*
X227490Y-184210D02*
G54D19*
D03*
X302103Y-27047D02*
G54D19*
D03*
G54D18*
X207343Y-13464D02*
X207343Y-23575D01*
X208276Y-25131D01*
X210143Y-25908D01*
X212010Y-25908D01*
X213876Y-25131D01*
X214810Y-23575D01*
X214810Y-13464D01*
G54D18*
X218232Y-25908D02*
X218232Y-13464D01*
X222899Y-13464D01*
X224765Y-14242D01*
X225699Y-15797D01*
X225699Y-23575D01*
X224765Y-25131D01*
X222899Y-25908D01*
X218232Y-25908D01*
G54D18*
X236588Y-15797D02*
X236588Y-23575D01*
X235654Y-25131D01*
X233788Y-25908D01*
X231921Y-25908D01*
X230054Y-25131D01*
X229121Y-23575D01*
X229121Y-15797D01*
X230054Y-14242D01*
X231921Y-13464D01*
X233788Y-13464D01*
X235654Y-14242D01*
X236588Y-15797D01*
G54D18*
X247477Y-23575D02*
X246543Y-25131D01*
X244677Y-25908D01*
X242810Y-25908D01*
X240943Y-25131D01*
X240010Y-23575D01*
X240010Y-15797D01*
X240943Y-14242D01*
X242810Y-13464D01*
X244677Y-13464D01*
X246543Y-14242D01*
X247477Y-15797D01*
G54D18*
X250899Y-25908D02*
X255566Y-13464D01*
X260232Y-25908D01*
G54D18*
X252766Y-21242D02*
X258366Y-21242D01*
G54D18*
X271121Y-13464D02*
X271121Y-23575D01*
X270187Y-25131D01*
X268321Y-25908D01*
X266454Y-25908D01*
X264587Y-25131D01*
X263654Y-23575D01*
G54D18*
X214162Y-199201D02*
X221629Y-199201D01*
X220696Y-200757D01*
X218829Y-203090D01*
X216962Y-206201D01*
X216029Y-208534D01*
X216029Y-211646D01*
G54D18*
X230652Y-211646D02*
X230652Y-199201D01*
X225052Y-206979D01*
X225052Y-208534D01*
X232518Y-208534D01*
G54D18*
X235940Y-211646D02*
X235940Y-199201D01*
G54D18*
X243407Y-211646D02*
X243407Y-199201D01*
G54D18*
X235940Y-205423D02*
X243407Y-205423D01*
G54D18*
X254296Y-209312D02*
X253363Y-210868D01*
X251496Y-211646D01*
X249630Y-211646D01*
X247763Y-210868D01*
X246830Y-209312D01*
X246830Y-201534D01*
X247763Y-199979D01*
X249630Y-199201D01*
X251496Y-199201D01*
X253363Y-199979D01*
X254296Y-201534D01*
G54D18*
X265185Y-199201D02*
X257718Y-199201D01*
X257718Y-204646D01*
X258652Y-204646D01*
X260518Y-203868D01*
X262385Y-203868D01*
X264252Y-204646D01*
X265185Y-206201D01*
X265185Y-209312D01*
X264252Y-210868D01*
X262385Y-211646D01*
X260518Y-211646D01*
X258652Y-210868D01*
X257718Y-209312D01*
G54D18*
X268608Y-209312D02*
X269541Y-210868D01*
X271408Y-211646D01*
X273274Y-211646D01*
X275141Y-210868D01*
X276074Y-209312D01*
X276074Y-205423D01*
X276074Y-204646D01*
X273274Y-206201D01*
X271408Y-206201D01*
X269541Y-205423D01*
X268608Y-203868D01*
X268608Y-201534D01*
X269541Y-199979D01*
X271408Y-199201D01*
X273274Y-199201D01*
X275141Y-199979D01*
X276074Y-201534D01*
X276074Y-205423D01*
G54D18*
X286963Y-199201D02*
X279496Y-199201D01*
X279496Y-204646D01*
X280430Y-204646D01*
X282296Y-203868D01*
X284163Y-203868D01*
X286030Y-204646D01*
X286963Y-206201D01*
X286963Y-209312D01*
X286030Y-210868D01*
X284163Y-211646D01*
X282296Y-211646D01*
X280430Y-210868D01*
X279496Y-209312D01*
G54D18*
X290386Y-211646D02*
X299719Y-211646D01*
G54D18*
X310607Y-209312D02*
X309674Y-210868D01*
X307807Y-211646D01*
X305940Y-211646D01*
X304074Y-210868D01*
X303140Y-209312D01*
X303140Y-201534D01*
X304074Y-199979D01*
X305940Y-199201D01*
X307807Y-199201D01*
X309674Y-199979D01*
X310607Y-201534D01*
G54D18*
X319630Y-209779D02*
X319630Y-206668D01*
X318696Y-205112D01*
X316830Y-204646D01*
X314963Y-205112D01*
X314030Y-206668D01*
X314030Y-209779D01*
X314963Y-211334D01*
X316830Y-211646D01*
X318696Y-211334D01*
X319630Y-209779D01*
G54D18*
X323052Y-211646D02*
X323052Y-204646D01*
G54D18*
X323052Y-206201D02*
X323985Y-205112D01*
X325852Y-204646D01*
X327718Y-205112D01*
X328652Y-206201D01*
X328652Y-211646D01*
G54D18*
X333940Y-199201D02*
X333940Y-210868D01*
X334874Y-211646D01*
X335807Y-211334D01*
G54D18*
X332074Y-204646D02*
X335807Y-204646D01*
G54D18*
X346695Y-211646D02*
X339228Y-211646D01*
X339228Y-210868D01*
X340162Y-209312D01*
X345762Y-204646D01*
X346695Y-203090D01*
X346695Y-201534D01*
X345762Y-199979D01*
X343895Y-199201D01*
X342028Y-199201D01*
X340162Y-199979D01*
X339228Y-201534D01*
X19528Y-19110D02*
G54D20*
D03*
X19528Y-209610D02*
G54D20*
D03*
X370366Y-209610D02*
G54D20*
D03*
X370366Y-20697D02*
G54D20*
D03*
X228169Y-82885D02*
G54D21*
D03*
X228169Y-95585D02*
G54D21*
D03*
X228169Y-108285D02*
G54D21*
D03*
X228169Y-120985D02*
G54D21*
D03*
X228169Y-133685D02*
G54D21*
D03*
X228169Y-146385D02*
G54D21*
D03*
X228169Y-159085D02*
G54D21*
D03*
X228169Y-171785D02*
G54D21*
D03*
X278169Y-171785D02*
G54D21*
D03*
X278169Y-159085D02*
G54D21*
D03*
X278169Y-146385D02*
G54D21*
D03*
X278169Y-133685D02*
G54D21*
D03*
X278169Y-120985D02*
G54D21*
D03*
X278169Y-108285D02*
G54D21*
D03*
X278169Y-95585D02*
G54D21*
D03*
X278169Y-82885D02*
G54D21*
D03*
G54D14*
X182790Y-37585D02*
X240472Y-37642D01*
X228169Y-74948D02*
G54D21*
D03*
%LPD*%
G54D22*
G36*
X278210Y-47857D02*
X267710Y-47857D01*
X267710Y-43524D01*
X278210Y-43524D01*
X278210Y-47857D01*
G37*
G36*
X276044Y-45691D02*
X276044Y-36691D01*
X280377Y-36691D01*
X280377Y-45691D01*
X276044Y-45691D01*
G37*
G36*
X278210Y-43524D02*
X288710Y-43524D01*
X288710Y-47857D01*
X278210Y-47857D01*
X278210Y-43524D01*
G37*
G54D23*
G36*
X348820Y-154466D02*
X360320Y-154466D01*
X360320Y-163706D01*
X348820Y-163706D01*
X348820Y-154466D01*
G37*
G36*
X353440Y-159086D02*
X353440Y-170586D01*
X344200Y-170586D01*
X344200Y-159086D01*
X353440Y-159086D01*
G37*
G36*
X348820Y-163706D02*
X337320Y-163706D01*
X337320Y-154466D01*
X348820Y-154466D01*
X348820Y-163706D01*
G37*
G36*
X344200Y-159086D02*
X344200Y-147586D01*
X353440Y-147586D01*
X353440Y-159086D01*
X344200Y-159086D01*
G37*
G54D24*
G36*
X133975Y-193285D02*
X142575Y-193285D01*
X142575Y-196685D01*
X133975Y-196685D01*
X133975Y-193285D01*
G37*
G36*
X135675Y-194985D02*
X135675Y-202585D01*
X132275Y-202585D01*
X132275Y-194985D01*
X135675Y-194985D01*
G37*
G36*
X133975Y-196685D02*
X125375Y-196685D01*
X125375Y-193285D01*
X133975Y-193285D01*
X133975Y-196685D01*
G37*
G36*
X132275Y-194985D02*
X132275Y-187385D01*
X135675Y-187385D01*
X135675Y-194985D01*
X132275Y-194985D01*
G37*
G54D24*
G36*
X133975Y-142485D02*
X142575Y-142485D01*
X142575Y-145885D01*
X133975Y-145885D01*
X133975Y-142485D01*
G37*
G36*
X135675Y-144185D02*
X135675Y-151785D01*
X132275Y-151785D01*
X132275Y-144185D01*
X135675Y-144185D01*
G37*
G36*
X133975Y-145885D02*
X125375Y-145885D01*
X125375Y-142485D01*
X133975Y-142485D01*
X133975Y-145885D01*
G37*
G36*
X132275Y-144185D02*
X132275Y-136585D01*
X135675Y-136585D01*
X135675Y-144185D01*
X132275Y-144185D01*
G37*
G54D24*
G36*
X133975Y-91685D02*
X142575Y-91685D01*
X142575Y-95085D01*
X133975Y-95085D01*
X133975Y-91685D01*
G37*
G36*
X135675Y-93385D02*
X135675Y-100985D01*
X132275Y-100985D01*
X132275Y-93385D01*
X135675Y-93385D01*
G37*
G36*
X133975Y-95085D02*
X125375Y-95085D01*
X125375Y-91685D01*
X133975Y-91685D01*
X133975Y-95085D01*
G37*
G36*
X132275Y-93385D02*
X132275Y-85785D01*
X135675Y-85785D01*
X135675Y-93385D01*
X132275Y-93385D01*
G37*
G54D24*
G36*
X133975Y-40885D02*
X142575Y-40885D01*
X142575Y-44285D01*
X133975Y-44285D01*
X133975Y-40885D01*
G37*
G36*
X135675Y-42585D02*
X135675Y-50185D01*
X132275Y-50185D01*
X132275Y-42585D01*
X135675Y-42585D01*
G37*
G36*
X133975Y-44285D02*
X125375Y-44285D01*
X125375Y-40885D01*
X133975Y-40885D01*
X133975Y-44285D01*
G37*
G36*
X132275Y-42585D02*
X132275Y-34985D01*
X135675Y-34985D01*
X135675Y-42585D01*
X132275Y-42585D01*
G37*
G54D24*
G36*
X182791Y-66285D02*
X191391Y-66285D01*
X191391Y-69685D01*
X182791Y-69685D01*
X182791Y-66285D01*
G37*
G36*
X184491Y-67985D02*
X184491Y-75585D01*
X181091Y-75585D01*
X181091Y-67985D01*
X184491Y-67985D01*
G37*
G36*
X182791Y-69685D02*
X174191Y-69685D01*
X174191Y-66285D01*
X182791Y-66285D01*
X182791Y-69685D01*
G37*
G36*
X181091Y-67985D02*
X181091Y-60385D01*
X184491Y-60385D01*
X184491Y-67985D01*
X181091Y-67985D01*
G37*
G54D24*
G36*
X182791Y-15485D02*
X191391Y-15485D01*
X191391Y-18885D01*
X182791Y-18885D01*
X182791Y-15485D01*
G37*
G36*
X184491Y-17185D02*
X184491Y-24785D01*
X181091Y-24785D01*
X181091Y-17185D01*
X184491Y-17185D01*
G37*
G36*
X182791Y-18885D02*
X174191Y-18885D01*
X174191Y-15485D01*
X182791Y-15485D01*
X182791Y-18885D01*
G37*
G36*
X181091Y-17185D02*
X181091Y-9585D01*
X184491Y-9585D01*
X184491Y-17185D01*
X181091Y-17185D01*
G37*
G54D24*
G36*
X182791Y-167885D02*
X191391Y-167885D01*
X191391Y-171285D01*
X182791Y-171285D01*
X182791Y-167885D01*
G37*
G36*
X184491Y-169585D02*
X184491Y-177185D01*
X181091Y-177185D01*
X181091Y-169585D01*
X184491Y-169585D01*
G37*
G36*
X182791Y-171285D02*
X174191Y-171285D01*
X174191Y-167885D01*
X182791Y-167885D01*
X182791Y-171285D01*
G37*
G36*
X181091Y-169585D02*
X181091Y-161985D01*
X184491Y-161985D01*
X184491Y-169585D01*
X181091Y-169585D01*
G37*
G54D24*
G36*
X182791Y-117085D02*
X191391Y-117085D01*
X191391Y-120485D01*
X182791Y-120485D01*
X182791Y-117085D01*
G37*
G36*
X184491Y-118785D02*
X184491Y-126385D01*
X181091Y-126385D01*
X181091Y-118785D01*
X184491Y-118785D01*
G37*
G36*
X182791Y-120485D02*
X174191Y-120485D01*
X174191Y-117085D01*
X182791Y-117085D01*
X182791Y-120485D01*
G37*
G36*
X181091Y-118785D02*
X181091Y-111185D01*
X184491Y-111185D01*
X184491Y-118785D01*
X181091Y-118785D01*
G37*
G54D22*
G36*
X47410Y-27384D02*
X47410Y-37884D01*
X43077Y-37884D01*
X43077Y-27384D01*
X47410Y-27384D01*
G37*
G36*
X45244Y-29551D02*
X36244Y-29551D01*
X36244Y-25218D01*
X45244Y-25218D01*
X45244Y-29551D01*
G37*
G36*
X43077Y-27384D02*
X43077Y-16884D01*
X47410Y-16884D01*
X47410Y-27384D01*
X43077Y-27384D01*
G37*
G54D22*
G36*
X47410Y-52784D02*
X47410Y-63284D01*
X43077Y-63284D01*
X43077Y-52784D01*
X47410Y-52784D01*
G37*
G36*
X45244Y-54951D02*
X36244Y-54951D01*
X36244Y-50618D01*
X45244Y-50618D01*
X45244Y-54951D01*
G37*
G36*
X43077Y-52784D02*
X43077Y-42284D01*
X47410Y-42284D01*
X47410Y-52784D01*
X43077Y-52784D01*
G37*
G54D22*
G36*
X47410Y-78184D02*
X47410Y-88684D01*
X43077Y-88684D01*
X43077Y-78184D01*
X47410Y-78184D01*
G37*
G36*
X45244Y-80351D02*
X36244Y-80351D01*
X36244Y-76018D01*
X45244Y-76018D01*
X45244Y-80351D01*
G37*
G36*
X43077Y-78184D02*
X43077Y-67684D01*
X47410Y-67684D01*
X47410Y-78184D01*
X43077Y-78184D01*
G37*
G54D22*
G36*
X47410Y-103584D02*
X47410Y-114084D01*
X43077Y-114084D01*
X43077Y-103584D01*
X47410Y-103584D01*
G37*
G36*
X45244Y-105751D02*
X36244Y-105751D01*
X36244Y-101418D01*
X45244Y-101418D01*
X45244Y-105751D01*
G37*
G36*
X43077Y-103584D02*
X43077Y-93084D01*
X47410Y-93084D01*
X47410Y-103584D01*
X43077Y-103584D01*
G37*
G54D22*
G36*
X47410Y-128984D02*
X47410Y-139484D01*
X43077Y-139484D01*
X43077Y-128984D01*
X47410Y-128984D01*
G37*
G36*
X45244Y-131151D02*
X36244Y-131151D01*
X36244Y-126818D01*
X45244Y-126818D01*
X45244Y-131151D01*
G37*
G36*
X43077Y-128984D02*
X43077Y-118484D01*
X47410Y-118484D01*
X47410Y-128984D01*
X43077Y-128984D01*
G37*
G54D22*
G36*
X47410Y-154384D02*
X47410Y-164884D01*
X43077Y-164884D01*
X43077Y-154384D01*
X47410Y-154384D01*
G37*
G36*
X45244Y-156551D02*
X36244Y-156551D01*
X36244Y-152218D01*
X45244Y-152218D01*
X45244Y-156551D01*
G37*
G36*
X43077Y-154384D02*
X43077Y-143884D01*
X47410Y-143884D01*
X47410Y-154384D01*
X43077Y-154384D01*
G37*
G54D22*
G36*
X47410Y-179784D02*
X47410Y-190284D01*
X43077Y-190284D01*
X43077Y-179784D01*
X47410Y-179784D01*
G37*
G36*
X45244Y-181951D02*
X36244Y-181951D01*
X36244Y-177618D01*
X45244Y-177618D01*
X45244Y-181951D01*
G37*
G36*
X43077Y-179784D02*
X43077Y-169284D01*
X47410Y-169284D01*
X47410Y-179784D01*
X43077Y-179784D01*
G37*
G54D22*
G36*
X47410Y-205184D02*
X47410Y-215684D01*
X43077Y-215684D01*
X43077Y-205184D01*
X47410Y-205184D01*
G37*
G36*
X45244Y-207351D02*
X36244Y-207351D01*
X36244Y-203018D01*
X45244Y-203018D01*
X45244Y-207351D01*
G37*
G36*
X43077Y-205184D02*
X43077Y-194684D01*
X47410Y-194684D01*
X47410Y-205184D01*
X43077Y-205184D01*
G37*
G54D25*
G36*
X17028Y-19110D02*
X17028Y-9110D01*
X22028Y-9110D01*
X22028Y-19110D01*
X17028Y-19110D01*
G37*
G36*
X19528Y-16610D02*
X29528Y-16610D01*
X29528Y-21610D01*
X19528Y-21610D01*
X19528Y-16610D01*
G37*
G36*
X22028Y-19110D02*
X22028Y-29110D01*
X17028Y-29110D01*
X17028Y-19110D01*
X22028Y-19110D01*
G37*
G36*
X19528Y-21610D02*
X9528Y-21610D01*
X9528Y-16610D01*
X19528Y-16610D01*
X19528Y-21610D01*
G37*
G54D25*
G36*
X17028Y-209610D02*
X17028Y-199610D01*
X22028Y-199610D01*
X22028Y-209610D01*
X17028Y-209610D01*
G37*
G36*
X19528Y-207110D02*
X29528Y-207110D01*
X29528Y-212110D01*
X19528Y-212110D01*
X19528Y-207110D01*
G37*
G36*
X22028Y-209610D02*
X22028Y-219610D01*
X17028Y-219610D01*
X17028Y-209610D01*
X22028Y-209610D01*
G37*
G36*
X19528Y-212110D02*
X9528Y-212110D01*
X9528Y-207110D01*
X19528Y-207110D01*
X19528Y-212110D01*
G37*
G54D25*
G36*
X367866Y-209610D02*
X367866Y-199610D01*
X372866Y-199610D01*
X372866Y-209610D01*
X367866Y-209610D01*
G37*
G36*
X370366Y-207110D02*
X380366Y-207110D01*
X380366Y-212110D01*
X370366Y-212110D01*
X370366Y-207110D01*
G37*
G36*
X372866Y-209610D02*
X372866Y-219610D01*
X367866Y-219610D01*
X367866Y-209610D01*
X372866Y-209610D01*
G37*
G36*
X370366Y-212110D02*
X360366Y-212110D01*
X360366Y-207110D01*
X370366Y-207110D01*
X370366Y-212110D01*
G37*
G54D25*
G36*
X367866Y-20697D02*
X367866Y-10697D01*
X372866Y-10697D01*
X372866Y-20697D01*
X367866Y-20697D01*
G37*
G36*
X370366Y-18197D02*
X380366Y-18197D01*
X380366Y-23197D01*
X370366Y-23197D01*
X370366Y-18197D01*
G37*
G36*
X372866Y-20697D02*
X372866Y-30697D01*
X367866Y-30697D01*
X367866Y-20697D01*
X372866Y-20697D01*
G37*
G36*
X370366Y-23197D02*
X360366Y-23197D01*
X360366Y-18197D01*
X370366Y-18197D01*
X370366Y-23197D01*
G37*
G54D26*
G36*
X228169Y-170452D02*
X242669Y-170451D01*
X242669Y-173118D01*
X228169Y-173118D01*
X228169Y-170452D01*
G37*
G36*
X229502Y-171785D02*
X229503Y-178285D01*
X226836Y-178285D01*
X226836Y-171785D01*
X229502Y-171785D01*
G37*
G36*
X228169Y-173118D02*
X213669Y-173119D01*
X213669Y-170452D01*
X228169Y-170452D01*
X228169Y-173118D01*
G37*
G54D26*
G36*
X278169Y-119652D02*
X292669Y-119652D01*
X292669Y-122318D01*
X278169Y-122318D01*
X278169Y-119652D01*
G37*
G36*
X278169Y-122318D02*
X263669Y-122318D01*
X263669Y-119652D01*
X278169Y-119652D01*
X278169Y-122318D01*
G37*
X278210Y-64691D02*
G54D27*
D03*
X278210Y-45691D02*
G54D27*
D03*
G36*
X332419Y-99286D02*
X332419Y-117286D01*
X314419Y-117286D01*
X314419Y-99286D01*
X332419Y-99286D01*
G37*
X348819Y-108286D02*
G54D28*
D03*
X323419Y-133686D02*
G54D28*
D03*
X348819Y-133686D02*
G54D28*
D03*
X323419Y-159086D02*
G54D28*
D03*
X348820Y-159086D02*
G54D28*
D03*
G36*
X96056Y-19386D02*
X96056Y-35386D01*
X80056Y-35386D01*
X80056Y-19386D01*
X96056Y-19386D01*
G37*
X88056Y-52786D02*
G54D29*
D03*
X88056Y-78186D02*
G54D29*
D03*
X88056Y-103586D02*
G54D29*
D03*
X88056Y-128986D02*
G54D29*
D03*
X88056Y-154386D02*
G54D29*
D03*
X88056Y-179786D02*
G54D29*
D03*
X88056Y-205186D02*
G54D29*
D03*
G54D30*
X277812Y-84138D02*
X277812Y-65088D01*
G54D30*
X323419Y-159086D02*
X286294Y-159086D01*
G54D30*
X286294Y-146386D02*
X310719Y-146386D01*
X323419Y-133686D01*
G54D30*
X286294Y-133686D02*
X298019Y-133686D01*
X323419Y-108286D01*
G54D30*
X349216Y-133686D02*
X349216Y-130511D01*
X336516Y-117811D01*
X336516Y-97173D01*
X334135Y-94792D01*
X309925Y-94792D01*
G54D30*
X278169Y-108285D02*
X296432Y-108286D01*
X309925Y-94792D01*
G54D30*
X278357Y-95586D02*
X261507Y-95586D01*
X253172Y-87252D01*
X253172Y-50342D01*
X240472Y-37642D01*
X111075Y-205185D02*
G54D31*
D03*
X133975Y-194985D02*
G54D31*
D03*
X133975Y-215385D02*
G54D31*
D03*
X111075Y-154385D02*
G54D31*
D03*
X133975Y-144185D02*
G54D31*
D03*
X133975Y-164585D02*
G54D31*
D03*
X111075Y-103585D02*
G54D31*
D03*
X133975Y-93385D02*
G54D31*
D03*
X133975Y-113785D02*
G54D31*
D03*
X111075Y-52785D02*
G54D31*
D03*
X133975Y-42585D02*
G54D31*
D03*
X133975Y-62985D02*
G54D31*
D03*
X159890Y-78185D02*
G54D31*
D03*
X182791Y-67985D02*
G54D31*
D03*
X182790Y-88385D02*
G54D31*
D03*
X159890Y-27385D02*
G54D31*
D03*
X182791Y-17185D02*
G54D31*
D03*
X182790Y-37585D02*
G54D31*
D03*
X159890Y-179785D02*
G54D31*
D03*
X182791Y-169585D02*
G54D31*
D03*
X182790Y-189985D02*
G54D31*
D03*
X159890Y-128985D02*
G54D31*
D03*
X182791Y-118785D02*
G54D31*
D03*
X182790Y-139185D02*
G54D31*
D03*
G54D30*
X88056Y-205185D02*
X111075Y-205185D01*
G54D30*
X88056Y-179785D02*
X159890Y-179785D01*
G54D30*
X88056Y-154385D02*
X111075Y-154385D01*
G54D30*
X88056Y-128985D02*
X159890Y-128985D01*
G54D30*
X88056Y-103585D02*
X111075Y-103585D01*
G54D30*
X88056Y-78185D02*
X159890Y-78185D01*
G54D30*
X88056Y-52785D02*
X111075Y-52785D01*
G54D30*
X88056Y-27385D02*
X159890Y-27385D01*
G54D30*
X133975Y-62985D02*
X139326Y-59413D01*
X151175Y-53914D01*
X202373Y-53914D01*
X217057Y-71773D01*
G54D30*
X228169Y-95586D02*
X189992Y-95586D01*
X182790Y-88385D01*
G54D30*
X133975Y-113785D02*
X139723Y-109419D01*
X151175Y-105905D01*
X199991Y-105905D01*
X202769Y-108683D01*
X227772Y-108683D01*
X228169Y-108286D01*
G54D30*
X133975Y-164585D02*
X139326Y-160219D01*
X151175Y-154323D01*
X190069Y-154323D01*
X210310Y-134083D01*
X227772Y-134083D01*
X228169Y-133686D01*
G54D30*
X228169Y-146386D02*
X205944Y-146386D01*
X198404Y-153926D01*
X198404Y-174372D01*
X182790Y-189985D01*
G54D30*
X133975Y-215385D02*
X184173Y-215385D01*
X203960Y-195598D01*
X203960Y-166230D01*
X211104Y-159086D01*
X228169Y-159086D01*
G54D30*
X182790Y-139185D02*
X196873Y-139185D01*
X215469Y-120589D01*
X227772Y-120589D01*
X228169Y-120986D01*
X64244Y-27385D02*
G54D32*
D03*
X45244Y-27384D02*
G54D32*
D03*
X64244Y-52785D02*
G54D32*
D03*
X45244Y-52784D02*
G54D32*
D03*
X64244Y-78185D02*
G54D32*
D03*
X45244Y-78184D02*
G54D32*
D03*
X64244Y-103585D02*
G54D32*
D03*
X45244Y-103584D02*
G54D32*
D03*
X64244Y-128985D02*
G54D32*
D03*
X45244Y-128984D02*
G54D32*
D03*
X64244Y-154385D02*
G54D32*
D03*
X45244Y-154384D02*
G54D32*
D03*
X64244Y-179785D02*
G54D32*
D03*
X45244Y-179784D02*
G54D32*
D03*
X64244Y-205185D02*
G54D32*
D03*
X45244Y-205184D02*
G54D32*
D03*
G54D30*
X64244Y-52785D02*
X88056Y-52785D01*
G54D30*
X64244Y-78185D02*
X88056Y-78185D01*
G54D30*
X88056Y-103585D02*
X64244Y-103585D01*
G54D30*
X88056Y-128985D02*
X64244Y-128985D01*
G54D30*
X88056Y-154385D02*
X64244Y-154385D01*
G54D30*
X88056Y-179785D02*
X64244Y-179785D01*
G54D30*
X88056Y-205185D02*
X64244Y-205185D01*
G54D30*
X64244Y-27385D02*
X88056Y-27385D01*
X321072Y-73422D02*
G54D33*
D03*
X349072Y-73422D02*
G54D33*
D03*
G54D30*
X348854Y-108347D02*
X348854Y-73422D01*
G54D30*
X278210Y-64691D02*
X320278Y-64691D01*
X321072Y-73422D01*
X19528Y-19110D02*
G54D34*
D03*
X19528Y-209610D02*
G54D34*
D03*
X370366Y-209610D02*
G54D34*
D03*
X370366Y-20697D02*
G54D34*
D03*
X228169Y-82885D02*
G54D35*
D03*
X228169Y-95585D02*
G54D35*
D03*
X228169Y-108285D02*
G54D35*
D03*
X228169Y-120985D02*
G54D35*
D03*
X228169Y-133685D02*
G54D35*
D03*
X228169Y-146385D02*
G54D35*
D03*
X228169Y-159085D02*
G54D35*
D03*
X228169Y-171785D02*
G54D35*
D03*
X278169Y-171785D02*
G54D35*
D03*
X278169Y-159085D02*
G54D35*
D03*
X278169Y-146385D02*
G54D35*
D03*
X278169Y-133685D02*
G54D35*
D03*
X278169Y-120985D02*
G54D35*
D03*
X278169Y-108285D02*
G54D35*
D03*
X278169Y-95585D02*
G54D35*
D03*
X278169Y-82885D02*
G54D35*
D03*
G54D30*
X182790Y-37585D02*
X240472Y-37642D01*
X228169Y-74948D02*
G54D35*
D03*
%LNAUGENFREISTANZEN*%
%LPC*%
X323419Y-108286D02*
G54D36*
D03*
X348819Y-108286D02*
G54D36*
D03*
X323419Y-133686D02*
G54D36*
D03*
X348819Y-133686D02*
G54D36*
D03*
X323419Y-159086D02*
G54D36*
D03*
X348820Y-159086D02*
G54D36*
D03*
X88056Y-27386D02*
G54D36*
D03*
X88056Y-52786D02*
G54D36*
D03*
X88056Y-78186D02*
G54D36*
D03*
X88056Y-103586D02*
G54D36*
D03*
X88056Y-128986D02*
G54D36*
D03*
X88056Y-154386D02*
G54D36*
D03*
X88056Y-179786D02*
G54D36*
D03*
X88056Y-205186D02*
G54D36*
D03*
X159228Y-14347D02*
G54D25*
D03*
X110412Y-39747D02*
G54D25*
D03*
X159228Y-65147D02*
G54D25*
D03*
X110412Y-90547D02*
G54D25*
D03*
X159228Y-115947D02*
G54D25*
D03*
X159228Y-166747D02*
G54D25*
D03*
X110412Y-141347D02*
G54D25*
D03*
X110412Y-192147D02*
G54D25*
D03*
X227490Y-184210D02*
G54D25*
D03*
X302103Y-27047D02*
G54D25*
D03*
X19528Y-19110D02*
G54D36*
D03*
X19528Y-209610D02*
G54D36*
D03*
X370366Y-209610D02*
G54D36*
D03*
X370366Y-20697D02*
G54D36*
D03*
M02*
