M48
M71
T01C0.5
T02C0.8
%
G05
T01
X011040Y-019210
X011040Y-014130
X011040Y-009050
X011040Y-003970
X015920Y-001430
X015920Y-006510
X015920Y-011590
X015920Y-016670
X022750Y-018420
X030210Y-002700
T02
X001950Y-020960
X008810Y-020520
X008810Y-017980
X008810Y-015440
X008810Y-012900
X008810Y-010360
X008810Y-007820
X008810Y-005280
X008810Y-002740
X001950Y-001910
X032340Y-010830
X034880Y-010830
X034880Y-013370
X032340Y-013370
X032340Y-015910
X034880Y-015910
X037040Y-020960
X037040Y-002070
M30
